<?xml version="1.0" encoding="UTF-8"?>
<svg version="1.1" xmlns="http://www.w3.org/2000/svg" width="512" height="512">
<path d="M0 0 C14.66593153 10.19568513 25.60840641 23.74932626 29.74780273 41.46484375 C31.86603529 54.29763126 31.44584138 68.79991362 26.125 80.75 C25.76277344 81.62269531 25.40054687 82.49539062 25.02734375 83.39453125 C21.11896477 92.01946248 14.99950216 99.30515422 8.125 105.75 C9.58701079 109.70211887 11.45103934 113.21138373 13.58203125 116.84375 C13.92175964 117.42425613 14.26148804 118.00476227 14.61151123 118.6028595 C15.71634959 120.48751649 16.82662769 122.36889425 17.9375 124.25 C18.70110157 125.54841471 19.46469198 126.84683598 20.22827148 128.14526367 C26.69451493 139.11641462 33.34180642 149.9718407 40.125 160.75 C40.70878418 160.54842285 41.29256836 160.3468457 41.89404297 160.13916016 C44.59380799 159.2111659 47.29683958 158.29305448 50 157.375 C50.9178125 157.05789062 51.835625 156.74078125 52.78125 156.4140625 C63.90585978 152.65363103 73.92574787 151.36093003 85.6875 151.375 C86.67887466 151.37432022 86.67887466 151.37432022 87.6902771 151.37362671 C98.39451403 151.3951618 107.97182066 152.42519127 118.125 155.75 C119.12015625 156.05808594 120.1153125 156.36617187 121.140625 156.68359375 C123.15026562 157.32778836 125.14169248 158.02879727 127.125 158.75 C127.3621875 158.11320313 127.599375 157.47640625 127.84375 156.8203125 C129.58120329 152.65678115 131.59946039 148.65475367 133.625 144.625 C134.27952148 143.31776978 134.27952148 143.31776978 134.94726562 141.98413086 C138.50231213 134.91536082 142.16478214 127.90609973 145.90039062 120.93115234 C147.85437781 117.26382861 149.69391513 113.66215048 151.125 109.75 C150.61710937 109.28851563 150.10921875 108.82703125 149.5859375 108.3515625 C139.45637518 98.75313828 134.18979329 88.46710298 133.72241211 74.52246094 C133.51524077 58.81220898 137.66669658 47.60909708 148.4375 36 C158.99604681 26.00708962 170.54327923 23.23560219 184.65527344 23.33032227 C198.77766239 23.74110257 209.85365726 29.587119 219.53125 39.8125 C229.89887134 52.41627497 231.53236324 65.93707912 230.125 81.75 C227.87326089 94.13456509 219.98236603 105.12242703 209.8125 112.40625 C197.86294563 120.02409091 186.02305994 120.80071244 172.125 119.75 C170.78423123 119.44796026 169.44755712 119.12380685 168.125 118.75 C161.58625376 130.60248057 155.14785805 142.50441225 148.875 154.5 C148.01612183 156.13279907 148.01612183 156.13279907 147.13989258 157.79858398 C146.61419678 158.80864502 146.08850098 159.81870605 145.546875 160.859375 C145.07862305 161.75624023 144.61037109 162.65310547 144.12792969 163.57714844 C142.98530532 165.65379134 142.98530532 165.65379134 143.125 167.75 C144.62574786 168.88934327 146.17944073 169.9589953 147.75 171 C170.17579186 187.01842276 184.50816595 210.52702486 189.65551758 237.53344727 C192.02636153 253.77674894 191.44699412 272.18192375 186.125 287.75 C185.91601074 288.37825684 185.70702148 289.00651367 185.49169922 289.65380859 C179.27403436 307.97146843 168.62474974 322.52086262 154.171875 335.25 C152.89845514 336.70615163 152.89845514 336.70615163 153.41477966 338.61080933 C154.16580843 340.8729154 155.10459559 342.50798596 156.44165039 344.47705078 C156.92207291 345.19104034 157.40249542 345.90502991 157.8974762 346.64065552 C158.41728561 347.40119232 158.93709503 348.16172913 159.47265625 348.9453125 C160.00394638 349.73396698 160.53523651 350.52262146 161.08262634 351.33517456 C162.77878576 353.85219295 164.48238347 356.36404237 166.1875 358.875 C167.89576168 361.39337258 169.60226393 363.91284455 171.30308533 366.43624878 C172.36141527 368.00626413 173.42410776 369.57334893 174.49147034 371.13723755 C174.96874069 371.84492279 175.44601105 372.55260803 175.93774414 373.28173828 C176.36108536 373.90476837 176.78442657 374.52779846 177.22059631 375.16970825 C178.125 376.75 178.125 376.75 178.125 378.75 C178.61484375 378.5334375 179.1046875 378.316875 179.609375 378.09375 C191.07359174 373.82431756 206.16652014 373.87426547 217.51953125 378.421875 C230.25352996 384.91296879 239.91409056 394.64971657 245 408.125 C248.1224279 419.94161337 247.69432987 434.82428523 242.125 445.75 C235.1369171 457.70238931 224.98776503 467.65552728 211.28125 471.27734375 C196.91204114 473.42916834 183.14764878 472.62405614 170.8125 464.4375 C160.57343422 456.70495752 152.08538635 446.84084438 150.125 433.75 C148.88773937 418.64804363 150.10387786 406.26675389 159.5390625 393.90625 C161.36711694 391.54858005 161.36711694 391.54858005 163.125 387.75 C154.545 374.88 145.965 362.01 137.125 348.75 C133.23333591 350.04722136 129.47344706 351.39080732 125.67480469 352.90771484 C99.09010738 363.3391059 69.35902811 362.87613646 43.07714844 351.64306641 C34.22096593 347.5915512 26.21103252 342.14068835 18.125 336.75 C7.895 346.98 -2.335 357.21 -12.875 367.75 C-10.93445227 372.60136933 -8.74668001 377.27609563 -6.44140625 381.95898438 C-0.05737237 395.31613681 0.62181094 412.94577629 -3.5625 427.125 C-4.28284034 429.01997198 -5.05039507 430.89801843 -5.875 432.75 C-6.23722656 433.62269531 -6.59945312 434.49539063 -6.97265625 435.39453125 C-14.66463294 452.36902897 -28.92248589 463.05081733 -45.734375 469.91796875 C-62.02500275 474.93228047 -81.3872321 472.84818754 -96.375 465.25 C-112.79373216 456.34772371 -123.48385123 441.95575147 -128.98828125 424.1484375 C-132.09059644 411.05712927 -131.35177869 395.05030624 -125.875 382.75 C-125.51277344 381.87730469 -125.15054688 381.00460937 -124.77734375 380.10546875 C-117.8549626 364.82929883 -105.23462165 353.78063924 -89.87109375 347.52734375 C-73.22112615 341.34180319 -54.18900891 341.38787765 -37.875 348.75 C-35.10416983 350.32675118 -32.47038152 351.93691725 -29.890625 353.80859375 C-29.22546875 354.11925781 -28.5603125 354.42992187 -27.875 354.75 C-24.95555838 353.60020632 -22.9520978 352.07338813 -20.75878906 349.86083984 C-20.17848938 349.2803891 -19.5981897 348.69993835 -19.00030518 348.10189819 C-18.38661072 347.47788116 -17.77291626 346.85386414 -17.140625 346.2109375 C-16.50259949 345.57008209 -15.86457397 344.92922668 -15.20721436 344.26895142 C-13.17505931 342.22562179 -11.14997782 340.17544018 -9.125 338.125 C-7.7465547 336.7365214 -6.36765364 335.3484951 -4.98828125 333.9609375 C-1.61188106 330.56251303 1.75819288 327.15792746 5.125 323.75 C4.66681885 323.03207275 4.2086377 322.31414551 3.73657227 321.57446289 C1.8628634 318.63498823 -0.00677843 315.69296471 -1.875 312.75 C-2.28121582 312.11304199 -2.68743164 311.47608398 -3.10595703 310.81982422 C-13.61606157 294.14130776 -18.27326039 276.25770768 -18 256.625 C-17.99097656 255.38234375 -17.98195312 254.1396875 -17.97265625 252.859375 C-17.94929729 249.82270996 -17.91654283 246.78646147 -17.875 243.75 C-18.70801919 243.68842382 -18.70801919 243.68842382 -19.55786705 243.62560368 C-27.22164267 242.96733239 -34.68962314 241.55217628 -42.22900391 240.06616211 C-43.64910397 239.78976462 -45.06928246 239.51376986 -46.48953247 239.23814392 C-50.31606746 238.49436466 -54.14149062 237.74500813 -57.96672869 236.99459147 C-61.97525681 236.20922201 -65.98479847 235.42906123 -69.99423218 234.64833069 C-77.57363284 233.17163155 -85.15211989 231.69029814 -92.73028409 230.2072683 C-101.36326233 228.51805032 -109.99725491 226.83404574 -118.63133359 225.15046299 C-136.38035155 221.68941274 -154.12809496 218.22186736 -171.875 214.75 C-172.40464355 215.43707031 -172.93428711 216.12414062 -173.47998047 216.83203125 C-174.53789795 218.18361328 -174.53789795 218.18361328 -175.6171875 219.5625 C-176.31183105 220.45582031 -177.00647461 221.34914062 -177.72216797 222.26953125 C-182.91885171 228.25709156 -189.74531007 231.3785007 -197.609375 232.0859375 C-208.33885274 232.32734743 -217.18240106 231.07551693 -225.34375 223.453125 C-232.73741291 215.22956115 -234.45690067 206.51554365 -234.1875 195.73828125 C-233.71317365 187.35258669 -230.10030477 180.347063 -223.875 174.75 C-214.67654981 167.83276545 -205.09132755 166.60693477 -193.875 167.75 C-185.30005441 169.70238088 -178.85624588 174.44789872 -174.0625 181.75 C-170.98879596 187.06831687 -169.58001993 191.5554186 -169.875 197.75 C-169.2348593 197.79354897 -168.59471861 197.83709795 -167.93517971 197.88196659 C-160.36758341 198.47427866 -153.04649339 199.73493095 -145.60766602 201.21850586 C-143.68833252 201.59429527 -143.68833252 201.59429527 -141.73022461 201.97767639 C-138.25193077 202.65878116 -134.77500285 203.34663409 -131.29827619 204.03568721 C-127.63855913 204.75967231 -123.97753527 205.47698744 -120.31663513 206.19496155 C-113.38537226 207.55528814 -106.45517798 208.92097492 -99.52540773 210.28888279 C-87.13097286 212.7352944 -74.73466023 215.17216688 -62.33807129 217.60763651 C-57.9981337 218.46048803 -53.65863795 219.31554283 -49.31951725 220.17254055 C-47.26462553 220.57818195 -45.20958356 220.9830524 -43.15447998 221.38761902 C-40.66478763 221.87781817 -38.1753391 222.36925826 -35.686203 222.86227417 C-28.43497093 224.28749565 -21.17136901 225.57741813 -13.875 226.75 C-13.71 225.595 -13.545 224.44 -13.375 223.25 C-9.07344653 204.11861532 4.67362908 188.50102926 18.43676758 175.37475586 C20.35870312 173.52508398 22.24351497 171.64072183 24.125 169.75 C18.21529064 159.74224167 12.28441108 149.74730045 6.32818604 139.76715088 C5.21650925 137.90341599 4.10684386 136.0384987 2.99755859 134.17333984 C1.21871149 131.19143393 -0.57467036 128.21896932 -2.375 125.25 C-3.15556763 123.9357605 -3.15556763 123.9357605 -3.9519043 122.5949707 C-4.43183838 121.81081787 -4.91177246 121.02666504 -5.40625 120.21875 C-5.81423828 119.54263672 -6.22222656 118.86652344 -6.64257812 118.16992188 C-7.04927734 117.70134766 -7.45597656 117.23277344 -7.875 116.75 C-10.93371206 116.75 -12.79302009 117.33461543 -15.6875 118.25 C-33.57965664 122.82655651 -52.30771004 120.3064131 -68.1875 111.11328125 C-82.65522303 102.19177041 -92.00380364 88.27365981 -96.98828125 72.1484375 C-100.09059644 59.05712927 -99.35177869 43.05030624 -93.875 30.75 C-93.51277344 29.87730469 -93.15054688 29.00460938 -92.77734375 28.10546875 C-85.8549626 12.82929883 -73.23462165 1.78063924 -57.87109375 -4.47265625 C-38.93392049 -11.50790437 -17.48941603 -10.43527048 0 0 Z " fill="#91DFF6" transform="translate(249.875,24.25)"/>
<path d="M0 0 C7.54433635 4.49865982 12.03696739 10.32350867 15.421875 18.3828125 C16.15305994 21.44049499 16.25854699 24.12520062 16.109375 27.2578125 C16.7495157 27.30136147 17.38965639 27.34491045 18.04919529 27.38977909 C25.61679159 27.98209116 32.93788161 29.24274345 40.37670898 30.72631836 C41.65626465 30.97684464 42.93582031 31.22737091 44.25415039 31.48548889 C47.73244423 32.16659366 51.20937215 32.85444659 54.68609881 33.54349971 C58.34581587 34.26748481 62.00683973 34.98479994 65.66773987 35.70277405 C72.59900274 37.06310064 79.52919702 38.42878742 86.45896727 39.79669529 C98.85340214 42.2431069 111.24971477 44.67997938 123.64630371 47.11544901 C127.9862413 47.96830053 132.32573705 48.82335533 136.66485775 49.68035305 C138.71974947 50.08599445 140.77479144 50.4908649 142.82989502 50.89543152 C145.31958737 51.38563067 147.8090359 51.87707076 150.298172 52.37008667 C157.54940407 53.79530815 164.81300599 55.08523063 172.109375 56.2578125 C172.274375 55.1028125 172.439375 53.9478125 172.609375 52.7578125 C176.98822424 33.28265084 191.08015747 17.56860637 205.109375 4.2578125 C205.109375 7.97630133 204.05518606 9.14288321 201.984375 12.1953125 C195.54825451 22.09003511 191.27753687 31.9014062 188.109375 43.2578125 C187.7175 44.4746875 187.325625 45.6915625 186.921875 46.9453125 C183.17987776 62.2011474 183.72395371 80.28749885 188.109375 95.2578125 C188.46128906 96.47726562 188.81320313 97.69671875 189.17578125 98.953125 C193.54352139 112.99331938 199.85252471 124.85174834 209.109375 136.2578125 C209.68042969 136.98226562 210.25148438 137.70671875 210.83984375 138.453125 C213.60827694 141.85495293 216.11621689 144.26123344 220.109375 146.2578125 C220.51027344 145.68933594 220.91117187 145.12085938 221.32421875 144.53515625 C228.75084285 134.44774619 237.24157236 127.9429076 249.80859375 125.796875 C251.90244543 125.5536332 254.00595944 125.39574139 256.109375 125.2578125 C256.25632812 125.84949219 256.40328125 126.44117188 256.5546875 127.05078125 C258.24537729 133.00706193 259.98293229 135.76746852 265.109375 139.2578125 C268.81918781 141.11271891 273.06060893 140.7118216 277.109375 140.2578125 C281.05160652 138.25085827 283.90595142 136.11380376 286.109375 132.2578125 C286.84197659 129.94433378 287.520813 127.6120605 288.109375 125.2578125 C301.39567095 126.65308182 310.86372781 130.4079943 320.109375 140.2578125 C327.92672409 150.12209838 328.54255062 160.08076444 328.109375 172.2578125 C328.57988281 171.896875 329.05039062 171.5359375 329.53515625 171.1640625 C330.15777344 170.7 330.78039062 170.2359375 331.421875 169.7578125 C332.03675781 169.29375 332.65164063 168.8296875 333.28515625 168.3515625 C335.109375 167.2578125 335.109375 167.2578125 338.109375 167.2578125 C339.4571991 168.72494507 339.4571991 168.72494507 340.83666992 170.80615234 C341.61713936 171.96768326 341.61713936 171.96768326 342.41337585 173.15267944 C343.24322746 174.42288437 343.24322746 174.42288437 344.08984375 175.71875 C344.94912224 177.01010361 344.94912224 177.01010361 345.82575989 178.32754517 C347.03677213 180.15196829 348.24274724 181.97974332 349.4440918 183.81054688 C351.28915376 186.62105106 353.14995558 189.42059014 355.01367188 192.21875 C356.18583864 193.9889594 357.35709369 195.75977292 358.52734375 197.53125 C359.08665085 198.37400482 359.64595795 199.21675964 360.22221375 200.08505249 C360.73307022 200.86571075 361.2439267 201.64636902 361.77026367 202.45068359 C362.22310226 203.13907318 362.67594086 203.82746277 363.14250183 204.53671265 C364.109375 206.2578125 364.109375 206.2578125 364.109375 208.2578125 C364.59921875 208.04125 365.0890625 207.8246875 365.59375 207.6015625 C377.05796674 203.33213006 392.15089514 203.38207797 403.50390625 207.9296875 C416.23790496 214.42078129 425.89846556 224.15752907 430.984375 237.6328125 C434.1068029 249.44942587 433.67870487 264.33209773 428.109375 275.2578125 C421.1212921 287.21020181 410.97214003 297.16333978 397.265625 300.78515625 C382.89641614 302.93698084 369.13202378 302.13186864 356.796875 293.9453125 C346.55780922 286.21277002 338.06976135 276.34865688 336.109375 263.2578125 C334.87211437 248.15585613 336.08825286 235.77456639 345.5234375 223.4140625 C347.35149194 221.05639255 347.35149194 221.05639255 349.109375 217.2578125 C340.529375 204.3878125 331.949375 191.5178125 323.109375 178.2578125 C319.21771091 179.55503386 315.45782206 180.89861982 311.65917969 182.41552734 C285.07448238 192.8469184 255.34340311 192.38394896 229.06152344 181.15087891 C220.20534093 177.0993637 212.19540752 171.64850085 204.109375 166.2578125 C193.879375 176.4878125 183.649375 186.7178125 173.109375 197.2578125 C175.04992273 202.10918183 177.23769499 206.78390813 179.54296875 211.46679688 C185.92700263 224.82394931 186.60618594 242.45358879 182.421875 256.6328125 C181.70153466 258.52778448 180.93397993 260.40583093 180.109375 262.2578125 C179.74714844 263.13050781 179.38492188 264.00320313 179.01171875 264.90234375 C171.31974206 281.87684147 157.06188911 292.55862983 140.25 299.42578125 C123.95937225 304.44009297 104.5971429 302.35600004 89.609375 294.7578125 C73.19064284 285.85553621 62.50052377 271.46356397 56.99609375 253.65625 C53.89377856 240.56494177 54.63259631 224.55811874 60.109375 212.2578125 C60.47160156 211.38511719 60.83382812 210.51242187 61.20703125 209.61328125 C68.1294124 194.33711133 80.74975335 183.28845174 96.11328125 177.03515625 C112.76324885 170.84961569 131.79536609 170.89569015 148.109375 178.2578125 C150.88020517 179.83456368 153.51399348 181.44472975 156.09375 183.31640625 C156.75890625 183.62707031 157.4240625 183.93773437 158.109375 184.2578125 C161.02881662 183.10801882 163.0322772 181.58120063 165.22558594 179.36865234 C165.80588562 178.7882016 166.3861853 178.20775085 166.98406982 177.60971069 C167.59776428 176.98569366 168.21145874 176.36167664 168.84375 175.71875 C169.48177551 175.07789459 170.11980103 174.43703918 170.77716064 173.77676392 C172.80931569 171.73343429 174.83439718 169.68325268 176.859375 167.6328125 C178.2378203 166.2443339 179.61672136 164.8563076 180.99609375 163.46875 C184.37249394 160.07032553 187.74256788 156.66573996 191.109375 153.2578125 C190.65119385 152.53988525 190.1930127 151.82195801 189.72094727 151.08227539 C187.8472384 148.14280073 185.97759657 145.20077721 184.109375 142.2578125 C183.70315918 141.62085449 183.29694336 140.98389648 182.87841797 140.32763672 C172.36831343 123.64912026 167.71111461 105.76552018 167.984375 86.1328125 C167.99339844 84.89015625 168.00242188 83.6475 168.01171875 82.3671875 C168.03507771 79.33052246 168.06783217 76.29427397 168.109375 73.2578125 C167.55402887 73.21676171 166.99868275 73.17571093 166.42650795 73.13341618 C158.76273233 72.47514489 151.29475186 71.05998878 143.75537109 69.57397461 C142.33527103 69.29757712 140.91509254 69.02158236 139.49484253 68.74595642 C135.66830754 68.00217716 131.84288438 67.25282063 128.01764631 66.50240397 C124.00911819 65.71703451 119.99957653 64.93687373 115.99014282 64.15614319 C108.41074216 62.67944405 100.83225511 61.19811064 93.25409091 59.7150808 C84.62111267 58.02586282 75.98712009 56.34185824 67.35304141 54.65827549 C49.60402345 51.19722524 31.85628004 47.72967986 14.109375 44.2578125 C13.57973145 44.94488281 13.05008789 45.63195312 12.50439453 46.33984375 C11.44647705 47.69142578 11.44647705 47.69142578 10.3671875 49.0703125 C9.32522217 50.41029297 9.32522217 50.41029297 8.26220703 51.77734375 C3.06552329 57.76490406 -3.76093507 60.8863132 -11.625 61.59375 C-22.35447774 61.83515993 -31.19802606 60.58332943 -39.359375 52.9609375 C-46.75303791 44.73737365 -48.47252567 36.02335615 -48.203125 25.24609375 C-47.72879865 16.86039919 -44.11592977 9.8548755 -37.890625 4.2578125 C-27.15195714 -3.81766573 -12.32399863 -5.91386512 0 0 Z " fill="#6EC5E7" transform="translate(63.890625,194.7421875)"/>
<path d="M0 0 C15.56303467 10.86830324 26.63959265 25.24450449 30.375 44.0625 C30.78166092 48.03250646 30.85262379 51.94887421 30.8125 55.9375 C30.80565186 56.9888916 30.79880371 58.0402832 30.79174805 59.12353516 C30.62707948 67.10040106 29.64622293 73.71565505 26.375 81.0625 C26.01277344 81.93519531 25.65054688 82.80789063 25.27734375 83.70703125 C17.58536706 100.68152897 3.32751411 111.36331733 -13.484375 118.23046875 C-29.77500275 123.24478047 -49.1372321 121.16068754 -64.125 113.5625 C-80.54373216 104.66022371 -91.23385123 90.26825147 -96.73828125 72.4609375 C-99.84059644 59.36962927 -99.10177869 43.36280624 -93.625 31.0625 C-93.26277344 30.18980469 -92.90054688 29.31710937 -92.52734375 28.41796875 C-85.6049626 13.14179883 -72.98462165 2.09313924 -57.62109375 -4.16015625 C-38.7608455 -11.16682637 -17.58064102 -10.02427288 0 0 Z " fill="#91DFF6" transform="translate(217.625,375.9375)"/>
<path d="M0 0 C0.99 0 1.98 0 3 0 C4.3478241 1.46713257 4.3478241 1.46713257 5.72729492 3.54833984 C6.50776436 4.70987076 6.50776436 4.70987076 7.30400085 5.89486694 C7.85723526 6.74167023 8.41046967 7.58847351 8.98046875 8.4609375 C9.83974724 9.75229111 9.83974724 9.75229111 10.71638489 11.06973267 C11.92739713 12.89415579 13.13337224 14.72193082 14.3347168 16.55273438 C16.17977876 19.36323856 18.04058058 22.16277764 19.90429688 24.9609375 C21.07646364 26.7311469 22.24771869 28.50196042 23.41796875 30.2734375 C24.2569294 31.53756973 24.2569294 31.53756973 25.11283875 32.82723999 C25.62369522 33.60789825 26.1345517 34.38855652 26.66088867 35.19287109 C27.11372726 35.88126068 27.56656586 36.56965027 28.03312683 37.27890015 C29 39 29 39 29 41 C29.48984375 40.7834375 29.9796875 40.566875 30.484375 40.34375 C41.94859174 36.07431756 57.04152014 36.12426547 68.39453125 40.671875 C81.12852996 47.16296879 90.78909056 56.89971657 95.875 70.375 C98.9974279 82.19161337 98.56932987 97.07428523 93 108 C86.0119171 119.95238931 75.86276503 129.90552728 62.15625 133.52734375 C47.78704114 135.67916834 34.02264878 134.87405614 21.6875 126.6875 C11.44843422 118.95495752 2.96038635 109.09084438 1 96 C-0.23726063 80.89804363 0.97887786 68.51675389 10.4140625 56.15625 C11.88325962 54.15872091 12.92565497 52.22438916 14 50 C10.33705664 44.48026825 6.67052437 38.96293372 3.00146484 33.44726562 C1.75323676 31.56988902 0.50583701 29.6919614 -0.74072266 27.81347656 C-2.53071045 25.11639074 -4.32364963 22.42128844 -6.1171875 19.7265625 C-6.95478104 18.46243027 -6.95478104 18.46243027 -7.80929565 17.17276001 C-8.32968414 16.39210175 -8.85007263 15.61144348 -9.38623047 14.80712891 C-9.84367645 14.11873932 -10.30112244 13.43034973 -10.77243042 12.72109985 C-12.0245938 10.86535445 -12.0245938 10.86535445 -14 9 C-13.15695312 8.51789063 -12.31390625 8.03578125 -11.4453125 7.5390625 C-10.34960938 6.90742188 -9.25390625 6.27578125 -8.125 5.625 C-7.03445313 4.99851562 -5.94390625 4.37203125 -4.8203125 3.7265625 C-1.98766657 2.14358549 -1.98766657 2.14358549 0 0 Z " fill="#3F83C0" transform="translate(399,362)"/>
<path d="M0 0 C14.66593153 10.19568513 25.60840641 23.74932626 29.74780273 41.46484375 C31.86603529 54.29763126 31.44584138 68.79991362 26.125 80.75 C25.76277344 81.62269531 25.40054688 82.49539062 25.02734375 83.39453125 C22.12410939 89.80132979 18.15322704 95.80592739 13.125 100.75 C12.135 100.75 11.145 100.75 10.125 100.75 C8.6953125 98.7734375 8.6953125 98.7734375 7.25 96.125 C0.153436 83.8185195 -9.69774337 76.925357 -23.28125 73.06640625 C-25.13724827 72.59260387 -27.0050938 72.16553471 -28.875 71.75 C-25.875 69.75 -25.875 69.75 -22.5625 68.0625 C-17.50111393 65.17793887 -14.09245211 61.18490422 -11.5 56 C-10.13565133 48.9053869 -9.74887294 42.00988605 -13.48046875 35.6015625 C-17.79575334 29.87202498 -22.66443404 25.86888092 -29.875 24.75 C-36.7437967 24.03943482 -42.22836107 24.55301579 -47.875 28.75 C-53.53598075 34.09834276 -56.8754015 38.67601108 -57.1875 46.5625 C-56.99782591 54.08251963 -54.69525707 59.63881652 -49.63671875 65.20703125 C-46.67959957 67.79696934 -43.47254746 69.19933299 -39.875 70.75 C-42.85076915 72.7338461 -45.1003136 73.49854199 -48.5 74.5 C-54.3742201 76.40361667 -58.99737998 79.00518617 -63.875 82.75 C-64.70773438 83.35972656 -65.54046875 83.96945313 -66.3984375 84.59765625 C-69.0754729 86.92422802 -70.70387642 89.17611213 -72.5625 92.1875 C-73.14386719 93.11433594 -73.72523438 94.04117188 -74.32421875 94.99609375 C-75.75372681 97.53464082 -76.86924255 100.02008691 -77.875 102.75 C-88.12197429 95.50214013 -94.63208491 82.09123525 -97.48022461 70.07250977 C-99.65832761 57.25847525 -99.18943103 42.68568935 -93.875 30.75 C-93.51277344 29.87730469 -93.15054688 29.00460938 -92.77734375 28.10546875 C-85.8549626 12.82929883 -73.23462165 1.78063924 -57.87109375 -4.47265625 C-38.93392049 -11.50790437 -17.48941603 -10.43527048 0 0 Z " fill="#91DFF6" transform="translate(249.875,24.25)"/>
<path d="M0 0 C10.23906578 7.73254248 18.72711365 17.59665562 20.6875 30.6875 C22.11678455 48.13329299 19.50517553 61.04058775 8.03125 74.65234375 C0.00069433 83.30791908 -10.29896965 88.36291097 -22.0390625 89.00390625 C-31.14541656 89.30551471 -39.24418368 89.36080076 -47.3125 84.6875 C-48.30636719 84.16671875 -49.30023438 83.6459375 -50.32421875 83.109375 C-61.86702432 76.80555498 -69.49056098 68.75719358 -74.1875 56.3125 C-77.3099279 44.49588663 -76.88182987 29.61321477 -71.3125 18.6875 C-64.3244171 6.73511069 -54.17526503 -3.21802728 -40.46875 -6.83984375 C-26.09954114 -8.99166834 -12.33514878 -8.18655614 0 0 Z " fill="#F8CA6D" transform="translate(459.3125,55.3125)"/>
<path d="M0 0 C6.4914144 3.67586116 11.89501919 8.78457824 13.9453125 16.1015625 C14.98059784 23.38091257 14.16308175 29.97575477 9.9453125 36.1015625 C6.38168393 39.89033006 2.93534247 43.43821918 -2.0546875 45.1015625 C-0.9821875 45.4728125 0.0903125 45.8440625 1.1953125 46.2265625 C15.15125497 51.52190237 25.24256211 58.10717196 32.9453125 71.1015625 C34.3828125 74.7265625 34.3828125 74.7265625 34.9453125 77.1015625 C33.9553125 78.0915625 32.9653125 79.0815625 31.9453125 80.1015625 C33.40732329 84.05368137 35.27135184 87.56294623 37.40234375 91.1953125 C37.74207214 91.775728 38.08180054 92.35614349 38.43182373 92.95414734 C39.5367965 94.83881429 40.64713632 96.72025202 41.7578125 98.6015625 C42.52146517 99.90141204 43.28505519 101.20129839 44.04858398 102.5012207 C49.28734784 111.3984353 54.64918942 120.21323382 60.18481445 128.9296875 C60.68456787 129.72246094 61.18432129 130.51523438 61.69921875 131.33203125 C62.13564697 132.01676514 62.5720752 132.70149902 63.02172852 133.40698242 C63.9453125 135.1015625 63.9453125 135.1015625 63.9453125 137.1015625 C61.86702757 138.60468727 59.81739699 139.95881074 57.6328125 141.2890625 C57.03791016 141.66998047 56.44300781 142.05089844 55.83007812 142.44335938 C54.25151156 143.41519198 52.60044719 144.26678099 50.9453125 145.1015625 C46.92399278 143.76112259 45.95281034 141.24260479 43.953125 137.7421875 C43.57046478 137.08929749 43.18780457 136.43640747 42.79354858 135.76373291 C41.97176338 134.35976259 41.15391471 132.95348221 40.33959961 131.54516602 C38.64413267 128.61503129 36.92715395 125.69773428 35.21124268 122.77954102 C33.92687831 120.59444964 32.64541554 118.40767579 31.36425781 116.22070312 C28.09972795 110.65538028 24.79855156 105.11403222 21.4453125 99.6015625 C20.92469238 98.72532227 20.40407227 97.84908203 19.86767578 96.94628906 C19.3879834 96.1622168 18.90829102 95.37814453 18.4140625 94.5703125 C18.00607422 93.89419922 17.59808594 93.21808594 17.17773438 92.52148438 C16.77103516 92.05291016 16.36433594 91.58433594 15.9453125 91.1015625 C12.88660044 91.1015625 11.02729241 91.68617793 8.1328125 92.6015625 C-10.22887488 97.29821823 -28.29587123 94.2824605 -44.609375 85.234375 C-48.14628269 83.10824514 -51.1918631 81.10797683 -54.0546875 78.1015625 C-54.18468441 71.49771926 -49.97428768 66.11865073 -46.0546875 61.1015625 C-38.50171177 53.62436914 -29.36960298 48.56817272 -19.0546875 46.1015625 C-19.7146875 45.6271875 -20.3746875 45.1528125 -21.0546875 44.6640625 C-28.12633062 38.62370067 -33.32466867 33.26045686 -34.296875 23.7265625 C-34.61223882 17.64189589 -33.75084375 13.0166639 -30.0546875 8.1015625 C-21.53578211 -0.86236034 -12.04227969 -5.21669606 0 0 Z " fill="#4084C1" transform="translate(226.0546875,49.8984375)"/>
<path d="M0 0 C0.14695312 0.59167969 0.29390625 1.18335938 0.4453125 1.79296875 C2.13600229 7.74924943 3.87355729 10.50965602 9 14 C12.70981281 15.85490641 16.95123393 15.4540091 21 15 C24.94223152 12.99304577 27.79657642 10.85599126 30 7 C30.73260159 4.68652128 31.411438 2.354248 32 0 C45.28629595 1.39526932 54.75435281 5.1501818 64 15 C66.01169013 17.5384419 67.57732743 20.09328468 69 23 C69.31839844 23.64066406 69.63679688 24.28132813 69.96484375 24.94140625 C72.03788834 29.97594311 72.362205 34.99317264 72.5 40.375 C72.5306958 41.07753906 72.5613916 41.78007812 72.59301758 42.50390625 C72.59375 44.5234375 72.59375 44.5234375 72 48 C69.58525909 49.98353718 68.14793411 51 65 51 C65 51.66 65 52.32 65 53 C37.50601012 65.53525374 7.54671654 68.64801835 -21.25 58.1875 C-27.81097547 55.68309282 -33.96692105 52.60450903 -40 49 C-40.71717057 35.54906762 -39.59600611 24.67841333 -30.71484375 13.80859375 C-22.54150571 5.18842174 -12.00135521 0 0 0 Z " fill="#8BC587" transform="translate(320,320)"/>
<path d="M0 0 C4.33373069 2.00031921 7.33378475 4.78518581 10.75 8.0625 C11.35199219 8.59810547 11.95398438 9.13371094 12.57421875 9.68554688 C15.1358912 12.15718322 16.81690744 13.85015109 17.38867188 17.44091797 C17.39041361 19.66380329 17.28073411 21.79623724 17 24 C17.79664063 23.96519531 18.59328125 23.93039062 19.4140625 23.89453125 C30.37322205 23.61455272 30.37322205 23.61455272 35 27 C39.35197221 31.2449565 40.80950831 34.42836225 41.25 40.375 C40.93207488 44.98491429 39.86315639 48.11139066 36.5703125 51.44921875 C32.1322394 55.30217276 29.21832768 56.02549007 23.4519043 55.98608398 C16.42639471 55.98244001 16.42639471 55.98244001 10.2734375 58.99609375 C8.34880694 61.24870442 6.68944549 63.5705863 5 66 C4.01 66.66 3.02 67.32 2 68 C1.69218508 70.64010493 1.53317861 73.10519074 1.5 75.75 C1.4205756 81.94510358 0.92800392 86.86338511 -3.53515625 91.64453125 C-9.227644 95.99761012 -12.87222635 96.789538 -20 96 C-25.31565158 93.34217421 -29.10236008 89.69291975 -31 84 C-31.07973476 82.66474283 -31.10771338 81.32587917 -31.09765625 79.98828125 C-31.09443359 79.23095703 -31.09121094 78.47363281 -31.08789062 77.69335938 C-31.07532227 76.51483398 -31.07532227 76.51483398 -31.0625 75.3125 C-31.05798828 74.51521484 -31.05347656 73.71792969 -31.04882812 72.89648438 C-31.0370585 70.93095743 -31.01912348 68.96546915 -31 67 C-31.75667969 66.7421875 -32.51335937 66.484375 -33.29296875 66.21875 C-36.11135723 64.94986514 -37.37639877 63.86134311 -39.3125 61.5 C-39.82425781 60.8915625 -40.33601563 60.283125 -40.86328125 59.65625 C-42 58 -42 58 -42 56 C-43.80984375 56.10441406 -43.80984375 56.10441406 -45.65625 56.2109375 C-60.21450038 56.8034156 -60.21450038 56.8034156 -64.9375 53.375 C-69.12493532 49.28295045 -71.11355733 45.36041747 -71.4375 39.5 C-71.27130678 35.00522873 -69.96858056 32.449972 -67 29 C-62.16498655 24.74058339 -59.79123973 23.87459569 -53.375 23.9375 C-52.18648438 23.94652344 -50.99796875 23.95554687 -49.7734375 23.96484375 C-48.85820312 23.97644531 -47.94296875 23.98804688 -47 24 C-47 21.36 -47 18.72 -47 16 C-46.26998779 15.9906543 -45.53997559 15.98130859 -44.7878418 15.97167969 C-41.42042357 15.91737937 -38.054307 15.83385118 -34.6875 15.75 C-33.53958984 15.73582031 -32.39167969 15.72164062 -31.20898438 15.70703125 C-20.32360231 15.39866349 -11.70330108 13.23170992 -3.55859375 5.78125 C-1.95702181 3.95088207 -0.97755183 2.21772952 0 0 Z " fill="#FEE1D4" transform="translate(351,240)"/>
<path d="M0 0 C6.4914144 3.67586116 11.89501919 8.78457824 13.9453125 16.1015625 C14.97999588 23.37667999 14.1670265 29.98119406 9.9453125 36.1015625 C6.28369674 39.93502304 2.3515158 43.16409363 -2.0546875 46.1015625 C-0.80365234 46.43027344 -0.80365234 46.43027344 0.47265625 46.765625 C7.94407326 48.87097275 13.81706828 51.34624468 19.9453125 56.1015625 C20.9765625 56.8440625 22.0078125 57.5865625 23.0703125 58.3515625 C28.68604142 63.72312929 32.728222 69.6351842 34.9453125 77.1015625 C19.03621493 91.51333324 2.35832407 94.97948463 -18.53808594 94.24072266 C-30.87776411 93.55837724 -45.41701834 87.17246899 -54.0546875 78.1015625 C-54.18468441 71.49771926 -49.97428768 66.11865073 -46.0546875 61.1015625 C-38.50171177 53.62436914 -29.36960298 48.56817272 -19.0546875 46.1015625 C-19.7146875 45.6271875 -20.3746875 45.1528125 -21.0546875 44.6640625 C-27.66617431 39.01675085 -33.44115235 33.51399439 -34.296875 24.5703125 C-34.59495026 18.18799516 -33.99519276 13.24727548 -30.0546875 8.1015625 C-21.5267617 -0.85594165 -12.0492209 -5.21970298 0 0 Z " fill="#F8CB6E" transform="translate(194.0546875,401.8984375)"/>
<path d="M0 0 C0.95390625 -0.0066568 1.9078125 -0.0133136 2.890625 -0.02017212 C4.90102213 -0.03026604 6.91145255 -0.03499015 8.921875 -0.03466797 C11.99014482 -0.03904843 15.05698361 -0.07542271 18.125 -0.11328125 C20.08332844 -0.11914871 22.04166367 -0.12311857 24 -0.125 C24.91265625 -0.13937103 25.8253125 -0.15374207 26.765625 -0.16854858 C33.67517808 -0.11917385 37.35793231 1.69386981 42.3125 6.6484375 C44.35132482 9.8954548 44.70279205 12.54653616 45 16.3359375 C46.5159375 16.3978125 46.5159375 16.3978125 48.0625 16.4609375 C52.79897939 17.12519985 55.88899472 19.83092628 59 23.3359375 C61.38406564 26.99042727 61.23048474 30.21679952 61.1953125 34.5078125 C61.1924826 35.1902301 61.18965271 35.87264771 61.18673706 36.57574463 C61.17558098 38.74599057 61.15048557 40.91581721 61.125 43.0859375 C61.11496426 44.56119194 61.10583944 46.03645287 61.09765625 47.51171875 C61.07736175 51.12008147 61.03820653 54.72754254 61 58.3359375 C55.72 57.6759375 50.44 57.0159375 45 56.3359375 C44.97808594 55.005625 44.95617187 53.6753125 44.93359375 52.3046875 C44.2779694 46.42365647 41.31058527 43.67563399 37.0625 39.8359375 C36.41603516 39.2171875 35.76957031 38.5984375 35.10351562 37.9609375 C31.82154401 34.77394291 31.82154401 34.77394291 28 32.3359375 C27.835 33.0165625 27.67 33.6971875 27.5 34.3984375 C23.86655542 41.51393314 17.46812787 45.0091735 10.1496582 47.54858398 C4.55751503 48.94651141 -0.95962449 48.75317474 -6.6875 48.5859375 C-7.87794922 48.56789063 -9.06839844 48.54984375 -10.29492188 48.53125 C-13.19749031 48.48462239 -16.09829111 48.41920031 -19 48.3359375 C-19 50.9759375 -19 53.6159375 -19 56.3359375 C-19.90363281 56.39652344 -20.80726563 56.45710938 -21.73828125 56.51953125 C-22.91777344 56.60332031 -24.09726562 56.68710937 -25.3125 56.7734375 C-26.48425781 56.85464844 -27.65601563 56.93585938 -28.86328125 57.01953125 C-32.02590958 57.2226746 -32.02590958 57.2226746 -35 58.3359375 C-35.09972601 53.80108886 -35.17186655 49.2668943 -35.21972656 44.73120117 C-35.23970121 43.19202539 -35.26689097 41.65292412 -35.30175781 40.11401367 C-35.66274117 23.75828236 -35.66274117 23.75828236 -31 16.3359375 C-30.31357422 15.13904297 -30.31357422 15.13904297 -29.61328125 13.91796875 C-21.98539182 3.54129033 -12.53095997 0.0305586 0 0 Z " fill="#5A5B5D" transform="translate(323,207.6640625)"/>
<path d="M0 0 C8.36028898 4.98520936 13.50462233 11.86004845 16.109375 21.2578125 C17.15862072 32.12848621 16.27636638 42.32593277 9.359375 51.1328125 C3.66684179 57.12722248 -3.36418857 60.85062261 -11.625 61.59375 C-22.35447774 61.83515993 -31.19802606 60.58332943 -39.359375 52.9609375 C-46.75303791 44.73737365 -48.47252567 36.02335615 -48.203125 25.24609375 C-47.72879865 16.86039919 -44.11592977 9.8548755 -37.890625 4.2578125 C-27.15195714 -3.81766573 -12.32399863 -5.91386512 0 0 Z " fill="#8BC586" transform="translate(63.890625,194.7421875)"/>
<path d="M0 0 C8.22884248 0.56217741 16.18217633 1.85087673 24.26733398 3.45263672 C26.18666748 3.82601669 26.18666748 3.82601669 28.14477539 4.2069397 C31.62309664 4.8838142 35.10003781 5.56753808 38.57672381 6.25275564 C42.23655997 6.97301115 45.89754066 7.68740524 49.55836487 8.40261841 C55.70445579 9.60428675 61.84968684 10.81027296 67.99438477 12.01904297 C75.06940336 13.41078518 82.14559133 14.79644549 89.22247642 16.17866313 C96.06544174 17.51527465 102.90769479 18.85549637 109.74958992 20.19757462 C112.64499261 20.76550654 115.54060693 21.33234041 118.43639946 21.8982811 C122.49276415 22.69130562 126.54805963 23.48967549 130.60327148 24.28857422 C131.7864949 24.51933655 132.96971832 24.75009888 134.188797 24.987854 C141.52452508 26.43868935 148.75845812 28.13370465 156 30 C155.01 35.28 154.02 40.56 153 46 C144.3711988 45.37257633 136.03211724 44.00644693 127.54833984 42.34790039 C126.12972345 42.0746988 124.71101964 41.80195075 123.29223633 41.52961731 C119.47373928 40.79510765 115.65661631 40.05368871 111.83980894 39.31045461 C108.64860061 38.68961989 105.45677012 38.07201679 102.26495135 37.45432943 C94.74285816 35.99849694 87.22191893 34.53680957 79.70166016 33.0715332 C71.93974678 31.55929073 64.17584882 30.05756794 56.41093671 28.56080633 C49.73522715 27.27358902 43.06083543 25.9796951 36.38746035 24.6804294 C32.40496198 23.90514756 28.42199669 23.13250244 24.43772507 22.36638069 C20.70151522 21.64767853 16.96701355 20.92069691 13.23368835 20.1871624 C11.86079205 19.91888323 10.48730665 19.65359958 9.11322403 19.39146423 C7.244946 19.03457084 5.37890751 18.66601144 3.51303101 18.29676819 C2.46633429 18.09342896 1.41963757 17.89008974 0.34122276 17.68058872 C-0.43138075 17.45599444 -1.20398426 17.23140017 -2 17 C-2.33 16.34 -2.66 15.68 -3 15 C-2.71125 14.154375 -2.4225 13.30875 -2.125 12.4375 C-0.76873592 8.29335976 -0.38705708 4.32010994 0 0 Z " fill="#4197CD" transform="translate(80,222)"/>
<path d="M0 0 C0.85851562 0.5775 1.71703125 1.155 2.6015625 1.75 C18.09079966 12.57061851 18.09079966 12.57061851 36 17 C36.495 18.485 36.495 18.485 37 20 C39.78130359 20.88054371 42.4032094 21.54932206 45.25 22.125 C46.05743652 22.29676758 46.86487305 22.46853516 47.69677734 22.64550781 C54.45030177 24.02214153 61.10633905 24.75640774 68 25 C68 22.36 68 19.72 68 17 C73.28 17 78.56 17 84 17 C84 23.6 84 30.2 84 37 C55.90234235 44.97834723 26.2633043 42.5966381 0.5 28.625 C-1.00638727 27.7610426 -2.50924647 26.89066207 -4 26 C-4.738041 8.14350797 -4.738041 8.14350797 0 0 Z " fill="#6DB56B" transform="translate(284,343)"/>
<path d="M0 0 C2.64 0 5.28 0 8 0 C8.01458252 0.82612793 8.02916504 1.65225586 8.04418945 2.50341797 C8.10583615 5.6162494 8.18009206 8.72847321 8.26245117 11.84082031 C8.31142159 13.83116913 8.34629946 15.82184881 8.38085938 17.8125 C8.68543702 28.77729509 9.75703772 39.03009652 18 47 C23.76836278 51.0670945 28.64944344 54.14334231 35.75 54.1875 C37.28914063 54.20876953 37.28914063 54.20876953 38.859375 54.23046875 C42.19374275 53.98578256 44.88391545 53.1801937 48 52 C48.08152344 54.54232342 48.14073716 57.08199202 48.1875 59.625 C48.21263672 60.33785156 48.23777344 61.05070312 48.26367188 61.78515625 C48.33976724 67.31475288 47.3785817 71.45195192 43.46484375 75.64453125 C37.772356 79.99761012 34.12777365 80.789538 27 80 C21.68434842 77.34217421 17.89763992 73.69291975 16 68 C15.92026524 66.66474283 15.89228662 65.32587917 15.90234375 63.98828125 C15.90556641 63.23095703 15.90878906 62.47363281 15.91210938 61.69335938 C15.92467773 60.51483398 15.92467773 60.51483398 15.9375 59.3125 C15.94201172 58.51521484 15.94652344 57.71792969 15.95117188 56.89648438 C15.9629415 54.93095743 15.98087652 52.96546915 16 51 C15.24332031 50.7421875 14.48664063 50.484375 13.70703125 50.21875 C10.88864277 48.94986514 9.62360123 47.86134311 7.6875 45.5 C7.17574219 44.8915625 6.66398437 44.283125 6.13671875 43.65625 C5 42 5 42 5 40 C3.19015625 40.10441406 3.19015625 40.10441406 1.34375 40.2109375 C-13.21450038 40.8034156 -13.21450038 40.8034156 -17.9375 37.375 C-22.12493532 33.28295045 -24.11355733 29.36041747 -24.4375 23.5 C-24.27130678 19.00522873 -22.96858056 16.449972 -20 13 C-15.16498655 8.74058339 -12.79123973 7.87459569 -6.375 7.9375 C-5.18648438 7.94652344 -3.99796875 7.95554687 -2.7734375 7.96484375 C-1.85820312 7.97644531 -0.94296875 7.98804688 0 8 C0 5.36 0 2.72 0 0 Z " fill="#ECB9AD" transform="translate(304,256)"/>
<path d="M0 0 C0.66 0.33 1.32 0.66 2 1 C1.66226562 1.59425781 1.32453125 2.18851562 0.9765625 2.80078125 C-4.84878933 13.62650734 -6.97131589 25.99467058 -4.3125 38.140625 C-0.1790342 51.57438885 7.06914418 61.83942231 19.3125 68.875 C31.39294459 74.99185718 44.15306607 75.5097201 57.12890625 72 C60.75897127 70.73565082 63.91635128 69.0360464 67.16015625 66.98828125 C69 66 69 66 72 66 C62.98975711 75.91630083 52.9439948 82.56233862 39.34375 83.31640625 C22.65701548 83.87569388 10.66958981 80.21027041 -1.75 68.6875 C-11.74291038 58.12895319 -14.51439781 46.58172077 -14.41967773 32.46972656 C-14.04495425 19.5869502 -9.41552666 8.95762871 0 0 Z " fill="#2B6BB2" transform="translate(414,413)"/>
<path d="M0 0 C0 3.62543326 -1.00820124 4.9273743 -2.875 8 C-8.41042358 17.94809614 -9.75230854 29.99513598 -7.3125 41.140625 C-3.16249853 54.62812978 4.09376502 64.89748081 16.4375 71.875 C28.63992229 78.02524499 40.98771205 78.63972635 54.19921875 75 C57.78876032 73.71837846 60.94277558 72.01936514 64.16015625 69.98828125 C66 69 66 69 69 69 C59.96392637 78.94472908 49.90846532 85.57194974 36.2734375 86.31640625 C27.16708344 86.61801471 19.06831632 86.67330076 11 82 C10.00613281 81.47921875 9.01226562 80.9584375 7.98828125 80.421875 C-3.55452432 74.11805498 -11.17806098 66.06969358 -15.875 53.625 C-18.99612997 41.81329856 -18.57417599 26.91950018 -13 16 C-9.40600013 9.90847479 -5.17608744 4.79734933 0 0 Z " fill="#E7B541" transform="translate(401,58)"/>
<path d="M0 0 C2.81647238 1.40823619 2.87251227 3.08755462 4 6 C5.11905121 8.04977976 6.27530709 10.07945094 7.45703125 12.09375 C7.96662384 12.96437325 7.96662384 12.96437325 8.48651123 13.85258484 C9.591484 15.73725179 10.70182382 17.61868952 11.8125 19.5 C12.57615267 20.79984954 13.33974269 22.09973589 14.10327148 23.3996582 C19.34203534 32.2968728 24.70387692 41.11167132 30.23950195 49.828125 C30.73925537 50.62089844 31.23900879 51.41367188 31.75390625 52.23046875 C32.19033447 52.91520264 32.6267627 53.59993652 33.07641602 54.30541992 C34 56 34 56 34 58 C31.92171507 59.50312477 29.87208449 60.85724824 27.6875 62.1875 C27.09259766 62.56841797 26.49769531 62.94933594 25.88476562 63.34179688 C24.30619906 64.31362948 22.65513469 65.16521849 21 66 C16.97859316 64.65953105 16.00765052 62.14100087 14.0078125 58.640625 C13.43355026 57.66156189 13.43355026 57.66156189 12.84768677 56.66271973 C11.59855002 54.52983977 10.36165763 52.39013549 9.125 50.25 C7.41803905 47.32058525 5.70553564 44.39443259 3.9921875 41.46875 C3.35543091 40.37877716 3.35543091 40.37877716 2.70581055 39.26678467 C-1.48212581 32.12276455 -5.87915408 25.11595643 -10.42919922 18.19628906 C-10.92178223 17.42510742 -11.41436523 16.65392578 -11.921875 15.859375 C-12.35081055 15.20420898 -12.77974609 14.54904297 -13.22167969 13.87402344 C-14.21270153 11.48786169 -13.96223299 10.3662853 -13 8 C-11.07421875 6.62109375 -11.07421875 6.62109375 -8.6875 5.4375 C-5.53973268 3.85060904 -2.7705475 2.18727434 0 0 Z " fill="#4097CD" transform="translate(256,129)"/>
<path d="M0 0 C0.54140625 0.27585938 1.0828125 0.55171875 1.640625 0.8359375 C4.31904312 2.15740869 7.02885041 3.39400376 9.75 4.625 C10.73484375 5.07101563 11.7196875 5.51703125 12.734375 5.9765625 C13.85585938 6.48316406 13.85585938 6.48316406 15 7 C14.38487611 11.54779427 12.53983111 15.23917988 10.4296875 19.25 C10.0703714 19.94456299 9.7110553 20.63912598 9.34085083 21.35473633 C8.19137905 23.57289865 7.0332374 25.78640451 5.875 28 C5.11924201 29.45674622 4.36402866 30.91377514 3.609375 32.37109375 C-0.84612639 40.95850858 -5.39224865 49.49338212 -10 58 C-15.28 55.36 -20.56 52.72 -26 50 C-20.79486674 39.54837601 -15.53556062 29.12833574 -10.18823242 18.7487793 C-9.03681679 16.51262077 -7.88851061 14.27488132 -6.74023438 12.03710938 C-6.00539444 10.6092792 -5.27037567 9.18154105 -4.53515625 7.75390625 C-4.19355972 7.08742569 -3.8519632 6.42094513 -3.50001526 5.73426819 C-1.11445136 1.11445136 -1.11445136 1.11445136 0 0 Z " fill="#4197CC" transform="translate(402,134)"/>
<path d="M0 0 C0.99 0 1.98 0 3 0 C4.38578796 1.55651855 4.38578796 1.55651855 5.8190918 3.76367188 C6.35942551 4.58452271 6.89975922 5.40537354 7.45646667 6.25109863 C8.03157486 7.14792358 8.60668304 8.04474854 9.19921875 8.96875 C9.79426712 9.87878784 10.38931549 10.78882568 11.00239563 11.72644043 C12.90731053 14.64466116 14.79748227 17.57211404 16.6875 20.5 C17.97365198 22.47588394 19.26074926 24.45115291 20.54882812 26.42578125 C23.71023649 31.27676223 26.85958028 36.13540865 30 41 C26.84087566 43.39892307 23.60588612 45.57009566 20.25 47.6875 C19.26515625 48.31011719 18.2803125 48.93273437 17.265625 49.57421875 C16.51796875 50.04472656 15.7703125 50.51523437 15 51 C14.66618317 50.50331818 14.33236633 50.00663635 13.98843384 49.49490356 C10.51971919 44.334795 7.04788624 39.17679518 3.57421875 34.02001953 C2.27751528 32.09412903 0.98161316 30.16769872 -0.31347656 28.24072266 C-2.173034 25.47416821 -4.0354462 22.70955537 -5.8984375 19.9453125 C-6.47870697 19.0806839 -7.05897644 18.2160553 -7.65682983 17.32522583 C-8.4674437 16.12420731 -8.4674437 16.12420731 -9.29443359 14.89892578 C-9.76964447 14.1927713 -10.24485535 13.48661682 -10.73446655 12.75906372 C-12.01991853 10.87271985 -12.01991853 10.87271985 -14 9 C-13.15695312 8.51789063 -12.31390625 8.03578125 -11.4453125 7.5390625 C-10.34960938 6.90742188 -9.25390625 6.27578125 -8.125 5.625 C-7.03445313 4.99851562 -5.94390625 4.37203125 -4.8203125 3.7265625 C-1.98766657 2.14358549 -1.98766657 2.14358549 0 0 Z " fill="#4197CD" transform="translate(399,362)"/>
<path d="M0 0 C2.99291327 1.26384935 4.75107278 3.46333738 6.9442749 5.82102966 C7.7280249 6.50165466 8.5117749 7.18227966 9.3192749 7.88352966 C9.8555249 8.52290466 10.3917749 9.16227966 10.9442749 9.82102966 C10.57298973 13.15126476 9.32731378 14.80701554 6.98504639 17.12083435 C6.36447861 17.74117554 5.74391083 18.36151672 5.10453796 19.00065613 C4.43161209 19.65809814 3.75868622 20.31554016 3.06536865 20.99290466 C2.37870621 21.67532227 1.69204376 22.35773987 0.98457336 23.06083679 C-1.20941925 25.23804163 -3.41361426 27.40458247 -5.6182251 29.57102966 C-7.10784144 31.04559937 -8.5967823 32.52085179 -10.08502197 33.99681091 C-13.73413318 37.61285143 -17.39242889 41.21936254 -21.0557251 44.82102966 C-25.93622434 40.87908796 -30.1137834 36.70152891 -34.0557251 31.82102966 C-29.5892271 27.22802717 -25.10345194 22.65452851 -20.60357666 18.09422302 C-19.0742963 16.53975795 -17.54952812 14.9808406 -16.02935791 13.41746521 C-13.84666898 11.17430412 -11.64838867 8.94752175 -9.4463501 6.72337341 C-8.7670343 6.01825119 -8.08771851 5.31312897 -7.38781738 4.5866394 C-6.74745544 3.94589981 -6.10709351 3.30516022 -5.44732666 2.64500427 C-4.60793549 1.78895851 -4.60793549 1.78895851 -3.75158691 0.9156189 C-2.0557251 -0.17897034 -2.0557251 -0.17897034 0 0 Z " fill="#4197CC" transform="translate(257.05572509765625,348.17897033691406)"/>
<path d="M0 0 C0 3.51479702 -0.65021767 4.18178057 -2.6875 6.9375 C-11.99207361 20.53141606 -15.12395186 36.94512584 -12.34765625 53.14453125 C-9.98345801 65.13719381 -5.50710871 75.97730895 3 85 C1.41037341 89.03520597 -0.28232318 93.01811282 -2 97 C-12.24697429 89.75214013 -18.75708491 76.34123525 -21.60522461 64.32250977 C-23.78332761 51.50847525 -23.31443103 36.93568935 -18 25 C-17.63777344 24.12730469 -17.27554688 23.25460937 -16.90234375 22.35546875 C-12.99396477 13.73053752 -6.87450216 6.44484578 0 0 Z " fill="#6EC5E6" transform="translate(142,382)"/>
<path d="M0 0 C0 3.51479702 -0.65021767 4.18178057 -2.6875 6.9375 C-11.99207361 20.53141606 -15.12395186 36.94512584 -12.34765625 53.14453125 C-9.98345801 65.13719381 -5.50710871 75.97730895 3 85 C1.41037341 89.03520597 -0.28232318 93.01811282 -2 97 C-12.24697429 89.75214013 -18.75708491 76.34123525 -21.60522461 64.32250977 C-23.78332761 51.50847525 -23.31443103 36.93568935 -18 25 C-17.63777344 24.12730469 -17.27554688 23.25460938 -16.90234375 22.35546875 C-12.99396477 13.73053752 -6.87450216 6.44484578 0 0 Z " fill="#6EC5E7" transform="translate(174,30)"/>
<path d="M0 0 C0 3 0 3 -1.5 6.4375 C-4.47952871 14.17008642 -3.76517983 22.8752717 -1.1015625 30.6171875 C2.96568094 39.41512544 9.23312941 44.24762995 17.75 48.3125 C25.78628147 50.01248262 33.23345855 49.39010337 40.94140625 46.65625 C43 46 43 46 46 46 C41.58338197 52.44090129 35.44705509 55.97144383 28 58 C16.90022728 58.99851512 7.2655134 58.34947202 -1.8125 51.25 C-7.8702339 45.59230513 -11.59107368 38.54573908 -12.3359375 30.265625 C-12.58632451 19.13716055 -11.08772132 10.7779315 -3.3671875 2.27734375 C-2 1 -2 1 0 0 Z " fill="#6CB568" transform="translate(28,198)"/>
<path d="M0 0 C0.47308594 0.36351563 0.94617188 0.72703125 1.43359375 1.1015625 C3.60800184 2.75462128 5.79947963 4.38186191 8 6 C8.69738281 6.51433594 9.39476562 7.02867188 10.11328125 7.55859375 C23.54287714 17.01086874 39.26948635 20.80255061 55.53125 18.5 C63.04055884 17.15687159 69.76948229 15.16213968 76.70703125 11.98828125 C79 11 79 11 81 11 C81 11.66 81 12.32 81 13 C63.31757414 26.76312528 46.38866583 30.03200793 24.4296875 27.60546875 C13.86486032 25.37447663 2.83870353 19.42048002 -5 12 C-5.21152732 7.02910797 -2.88114692 3.90348937 0 0 Z " fill="#2E6EB4" transform="translate(177,116)"/>
<path d="M0 0 C0.47308594 0.36351562 0.94617188 0.72703125 1.43359375 1.1015625 C3.60800184 2.75462128 5.79947963 4.38186191 8 6 C8.69738281 6.51433594 9.39476562 7.02867187 10.11328125 7.55859375 C23.24706861 16.80266712 37.150429 19.66408817 53 19 C54.13695312 18.97292969 54.13695312 18.97292969 55.296875 18.9453125 C61.4036149 18.56642718 66.5881342 16.35354069 72.1796875 13.9609375 C75 13 75 13 78 14 C76.30128474 19.09614578 70.62243948 20.81542172 66.015625 23.125 C52.27842259 29.67876354 33.50337538 30.63945403 18.87109375 26.1796875 C10.26902254 22.64523103 1.79583992 18.43325699 -5 12 C-5.21152732 7.02910797 -2.88114692 3.90348937 0 0 Z " fill="#E1B649" transform="translate(145,468)"/>
<path d="M0 0 C13.11681173 -0.57306459 13.11681173 -0.57306459 18 3 C22.35197221 7.2449565 23.80950831 10.42836225 24.25 16.375 C23.93207488 20.98491429 22.86315639 24.11139066 19.5703125 27.44921875 C14.41358874 31.92607595 10.37019982 32.13695423 3.8125 32.0625 C3.06291016 32.05798828 2.31332031 32.05347656 1.54101562 32.04882812 C-0.30602383 32.03706354 -2.15302213 32.01912865 -4 32 C-3.79141357 31.41299316 -3.58282715 30.82598633 -3.36791992 30.22119141 C-1.15851065 23.54000055 -0.47627098 17.38439793 -0.3125 10.375 C-0.27833984 9.37082031 -0.24417969 8.36664063 -0.20898438 7.33203125 C-0.12752109 4.88813282 -0.05805078 2.44454719 0 0 Z " fill="#ECB9AD" transform="translate(368,264)"/>
<path d="M0 0 C0.85851562 0.5775 1.71703125 1.155 2.6015625 1.75 C10.46041322 6.98616095 18.4485995 11.97581153 27 16 C27 16.33 27 16.66 27 17 C24.69 17 22.38 17 20 17 C20 23.27 20 29.54 20 36 C13.25018378 34.87503063 13.25018378 34.87503063 9.984375 33.1875 C9.29085938 32.83429688 8.59734375 32.48109375 7.8828125 32.1171875 C7.17898438 31.74851562 6.47515625 31.37984375 5.75 31 C5.03070313 30.63132812 4.31140625 30.26265625 3.5703125 29.8828125 C1.71019467 28.92837002 -0.1452379 27.96480898 -2 27 C-2.66 26.67 -3.32 26.34 -4 26 C-4.738041 8.14350797 -4.738041 8.14350797 0 0 Z " fill="#6DB56D" transform="translate(284,343)"/>
<path d="M0 0 C1.27815712 2.55631424 0.72311242 3.29073879 0 6 C-0.90797194 14.11986331 0.32024178 20.24693117 5 27 C9.41876094 32.19725232 14.49346002 34.31803728 21 36 C21 36.33 21 36.66 21 37 C16.38 37 11.76 37 7 37 C7 39.64 7 42.28 7 45 C6.09636719 45.06058594 5.19273437 45.12117188 4.26171875 45.18359375 C3.08222656 45.26738281 1.90273438 45.35117187 0.6875 45.4375 C-0.48425781 45.51871094 -1.65601563 45.59992188 -2.86328125 45.68359375 C-6.02590958 45.8867371 -6.02590958 45.8867371 -9 47 C-9.09972601 42.46515136 -9.17186655 37.9309568 -9.21972656 33.39526367 C-9.23970121 31.85608789 -9.26689097 30.31698662 -9.30175781 28.77807617 C-9.70248679 10.62151773 -9.70248679 10.62151773 -3.63085938 3.36328125 C-2.25 1.9375 -2.25 1.9375 0 0 Z " fill="#404143" transform="translate(297,219)"/>
<path d="M0 0 C5.28 0 10.56 0 16 0 C16 6.6 16 13.2 16 20 C9 22 9 22 0 22 C0 14.74 0 7.48 0 0 Z " fill="#52A050" transform="translate(352,360)"/>
<path d="M0 0 C5.28 0 10.56 0 16 0 C16 7.26 16 14.52 16 22 C7 22 7 22 0 20 C0 13.4 0 6.8 0 0 Z " fill="#52A050" transform="translate(304,360)"/>
<path d="M0 0 C0.32338989 6.25220449 0.06318646 10.57537561 -4.32421875 15.48046875 C-6.76523494 17.76772014 -8.72513509 18.94273648 -12 19.625 C-15.96227817 18.79952538 -18.4309015 17.03138466 -21 14 C-23.18260537 10.33780072 -24 7.31922847 -24 3 C-23.16597656 3.03480469 -22.33195312 3.06960938 -21.47265625 3.10546875 C-15.0421054 3.26015554 -9.70877164 3.06140014 -3.70703125 0.65625 C-2 0 -2 0 0 0 Z " fill="#FEE0D3" transform="translate(352,316)"/>
<path d="M0 0 C0.43695709 5.33087655 0.43695709 5.33087655 0 8 C-2.40859879 10.02829372 -3.83044309 11 -7 11 C-7 11.66 -7 12.32 -7 13 C-9.26807204 14.0067004 -11.53907754 15.00551766 -13.8125 16 C-14.45509766 16.28617187 -15.09769531 16.57234375 -15.75976562 16.8671875 C-18.67756469 18.13711041 -20.78265714 19 -24 19 C-24 15.04 -24 11.08 -24 7 C-20.18800428 5.83166355 -16.3754385 4.665252 -12.5625 3.5 C-11.47388672 3.16613281 -10.38527344 2.83226562 -9.26367188 2.48828125 C-8.22919922 2.17246094 -7.19472656 1.85664063 -6.12890625 1.53125 C-5.17056885 1.23798828 -4.21223145 0.94472656 -3.22485352 0.64257812 C-1 0 -1 0 0 0 Z " fill="#6DB56E" transform="translate(392,360)"/>
<path d="M0 0 C5.28 0 10.56 0 16 0 C16 3.3 16 6.6 16 10 C10.72 9.34 5.44 8.68 0 8 C0 5.36 0 2.72 0 0 Z " fill="#3F4042" transform="translate(368,256)"/>
<path d="M0 0 C0.66 0.33 1.32 0.66 2 1 C-0.34133029 3.42938418 -2.70023581 5.84098035 -5.0625 8.25 C-6.04766602 9.27287109 -6.04766602 9.27287109 -7.05273438 10.31640625 C-11.89740674 15.23267476 -16.35970895 18.78656965 -23 21 C-23 18.69 -23 16.38 -23 14 C-22.48091064 13.71801758 -21.96182129 13.43603516 -21.42700195 13.14550781 C-19.0527215 11.85203478 -16.68261184 10.55109455 -14.3125 9.25 C-13.49587891 8.8065625 -12.67925781 8.363125 -11.83789062 7.90625 C-7.58060142 5.56215554 -3.68363907 3.21099291 0 0 Z " fill="#6EC5E7" transform="translate(415,346)"/>
<path d="M0 0 C-1.04874998 2.62187494 -1.64931313 3.79371361 -4.125 5.25 C-4.74375 5.4975 -5.3625 5.745 -6 6 C-6.33 5.01 -6.66 4.02 -7 3 C-2.25 0 -2.25 0 0 0 Z " fill="#CABD6D" transform="translate(229,477)"/>
</svg>
